HIERARCHY
ROOT hip
{
  OFFSET 0 0 0
  CHANNELS 6 Xposition Yposition Zposition Zrotation Yrotation Xrotation
  JOINT abdomen
  {
    OFFSET 0 20.6881 -0.73152
    CHANNELS 3 Zrotation Xrotation Yrotation
    JOINT chest
    {
      OFFSET 0 11.7043 -0.48768
      CHANNELS 3 Zrotation Xrotation Yrotation
      JOINT neck
      {
        OFFSET 0 22.1894 -2.19456
        CHANNELS 3 Zrotation Xrotation Yrotation
        JOINT head
        {
          OFFSET -0.24384 7.07133 1.2192
          CHANNELS 3 Zrotation Xrotation Yrotation
          JOINT leftEye
          {
            OFFSET 4.14528 8.04674 8.04672
            CHANNELS 3 Zrotation Xrotation Yrotation
            End Site
            {
              OFFSET 1 0 0
            }
          }
          JOINT rightEye
          {
            OFFSET -3.6576 8.04674 8.04672
            CHANNELS 3 Zrotation Xrotation Yrotation
            End Site
            {
              OFFSET 1 0 0
            }
          }
        }
      }
      JOINT rCollar
      {
        OFFSET -2.68224 19.2634 -4.8768
        CHANNELS 3 Zrotation Xrotation Yrotation
        JOINT rShldr
        {
          OFFSET -8.77824 -1.95073 1.46304
          CHANNELS 3 Zrotation Xrotation Yrotation
          JOINT rForeArm
          {
            OFFSET -28.1742 -1.7115 0.48768
            CHANNELS 3 Zrotation Xrotation Yrotation
            JOINT rHand
            {
              OFFSET -22.5879 0.773209 7.07136
              CHANNELS 3 Zrotation Xrotation Yrotation
              JOINT rThumb1
              {
                OFFSET -1.2192 -0.487915 3.41376
                CHANNELS 3 Zrotation Xrotation Yrotation
                JOINT rThumb2
                {
                  OFFSET -3.37035 -0.52449 3.41376
                  CHANNELS 3 Zrotation Xrotation Yrotation
                  End Site
                  {
                    OFFSET -1.78271 -1.18214 1.43049
                  }
                }
              }
              JOINT rIndex1
              {
                OFFSET -7.75947 0.938293 5.60832
                CHANNELS 3 Zrotation Xrotation Yrotation
                JOINT rIndex2
                {
                  OFFSET -2.54057 -0.884171 1.56538
                  CHANNELS 3 Zrotation Xrotation Yrotation
                  End Site
                  {
                    OFFSET -1.62519 -0.234802 1.16502
                  }
                }
              }
              JOINT rMid1
              {
                OFFSET -8.24714 1.18213 3.41376
                CHANNELS 3 Zrotation Xrotation Yrotation
                JOINT rMid2
                {
                  OFFSET -3.10165 -0.590103 1.0647
                  CHANNELS 3 Zrotation Xrotation Yrotation
                  End Site
                  {
                    OFFSET -2.48547 -0.328903 0.83742
                  }
                }
              }
              JOINT rRing1
              {
                OFFSET -8.82822 0.546677 1.51678
                CHANNELS 3 Zrotation Xrotation Yrotation
                JOINT rRing2
                {
                  OFFSET -2.60934 -0.819778 -0.0198488
                  CHANNELS 3 Zrotation Xrotation Yrotation
                  End Site
                  {
                    OFFSET -2.33842 -0.294052 0.168128
                  }
                }
              }
              JOINT rPinky1
              {
                OFFSET -8.27202 -0.0477905 -0.4584
                CHANNELS 3 Zrotation Xrotation Yrotation
                JOINT rPinky2
                {
                  OFFSET -1.82734 -0.647385 -0.700984
                  CHANNELS 3 Zrotation Xrotation Yrotation
                  End Site
                  {
                    OFFSET -1.69225 -0.51767 -0.607171
                  }
                }
              }
            }
          }
        }
      }
      JOINT lCollar
      {
        OFFSET 2.68224 19.2634 -4.8768
        CHANNELS 3 Zrotation Xrotation Yrotation
        JOINT lShldr
        {
          OFFSET 8.77824 -1.95073 1.46304
          CHANNELS 3 Zrotation Xrotation Yrotation
          JOINT lForeArm
          {
            OFFSET 28.1742 -1.7115 0.48768
            CHANNELS 3 Zrotation Xrotation Yrotation
            JOINT lHand
            {
              OFFSET 22.5879 0.773209 7.07136
              CHANNELS 3 Zrotation Xrotation Yrotation
              JOINT lThumb1
              {
                OFFSET 1.2192 -0.487915 3.41376
                CHANNELS 3 Zrotation Xrotation Yrotation
                JOINT lThumb2
                {
                  OFFSET 3.37035 -0.52449 3.41376
                  CHANNELS 3 Zrotation Xrotation Yrotation
                  End Site
                  {
                    OFFSET 1.78271 -1.18214 1.43049
                  }
                }
              }
              JOINT lIndex1
              {
                OFFSET 7.75947 0.938293 5.60832
                CHANNELS 3 Zrotation Xrotation Yrotation
                JOINT lIndex2
                {
                  OFFSET 2.54057 -0.884171 1.56538
                  CHANNELS 3 Zrotation Xrotation Yrotation
                  End Site
                  {
                    OFFSET 1.62519 -0.234802 1.16502
                  }
                }
              }
              JOINT lMid1
              {
                OFFSET 8.24714 1.18213 3.41376
                CHANNELS 3 Zrotation Xrotation Yrotation
                JOINT lMid2
                {
                  OFFSET 3.10165 -0.590103 1.0647
                  CHANNELS 3 Zrotation Xrotation Yrotation
                  End Site
                  {
                    OFFSET 2.48547 -0.328903 0.83742
                  }
                }
              }
              JOINT lRing1
              {
                OFFSET 8.82822 0.546677 1.51678
                CHANNELS 3 Zrotation Xrotation Yrotation
                JOINT lRing2
                {
                  OFFSET 2.60934 -0.819778 -0.0198488
                  CHANNELS 3 Zrotation Xrotation Yrotation
                  End Site
                  {
                    OFFSET 2.33842 -0.294052 0.168128
                  }
                }
              }
              JOINT lPinky1
              {
                OFFSET 8.27202 -0.0477905 -0.4584
                CHANNELS 3 Zrotation Xrotation Yrotation
                JOINT lPinky2
                {
                  OFFSET 1.82734 -0.647385 -0.700984
                  CHANNELS 3 Zrotation Xrotation Yrotation
                  End Site
                  {
                    OFFSET 1.69225 -0.51767 -0.607171
                  }
                }
              }
            }
          }
        }
      }
    }
  }
  JOINT rButtock
  {
    OFFSET -8.77824 4.35084 1.2192
    CHANNELS 3 Zrotation Xrotation Yrotation
    JOINT rThigh
    {
      OFFSET 0 -1.70687 -2.19456
      CHANNELS 3 Zrotation Xrotation Yrotation
      JOINT rShin
      {
        OFFSET 0 -36.8199 0.73152
        CHANNELS 3 Zrotation Xrotation Yrotation
        JOINT rFoot
        {
          OFFSET 0.73152 -45.1104 -5.12064
          CHANNELS 3 Zrotation Xrotation Yrotation
          End Site
          {
            OFFSET -1.1221 -3.69964 12.103
          }
        }
      }
    }
  }
  JOINT lButtock
  {
    OFFSET 8.77824 4.35084 1.2192
    CHANNELS 3 Zrotation Xrotation Yrotation
    JOINT lThigh
    {
      OFFSET 0 -1.70687 -2.19456
      CHANNELS 3 Zrotation Xrotation Yrotation
      JOINT lShin
      {
        OFFSET 0 -36.8199 0.73152
        CHANNELS 3 Zrotation Xrotation Yrotation
        JOINT lFoot
        {
          OFFSET -0.73152 -45.1104 -5.12064
          CHANNELS 3 Zrotation Xrotation Yrotation
          End Site
          {
            OFFSET 1.1221 -3.69964 12.103
          }
        }
      }
    }
  }
}
MOTION
Frames:	4
Frame Time:	0.03333
-155.28977939324787 68.01782413254668 0.8985945682147274 168.50901794433594 -29.03025245666504 -171.67593383789062 -10.00661563873291 19.16404914855957 -0.9065070748329163 9.95518684387207 -11.43858528137207 -0.4374845027923584 -9.925077438354492 17.893762588500977 -13.155280113220215 10.807186126708984 -22.863719940185547 -25.622011184692383 0.14817872643470764 0.1297328770160675 -0.41967666149139404 -0.15801596641540527 -0.5205143690109253 -0.10618529468774796 0.4895082712173462 -0.12203340977430344 -0.07263394445180893 67.90473937988281 -12.102645874023438 28.92389488220215 -27.78374671936035 -29.23558235168457 69.55511474609375 -28.257843017578125 -76.88817596435547 -36.06633758544922 0.7094494700431824 0.6098517179489136 0.3214390277862549 -0.6599623560905457 0.3305477797985077 -0.5220852494239807 0.6838394999504089 -0.904436469078064 0.13846157491207123 7.750006198883057 4.70851993560791 1.1991466283798218 -0.08102729916572571 -0.7455522418022156 -0.4228423237800598 3.155996084213257 0.6526289582252502 0.9954450726509094 0.856210470199585 0.21005846560001373 -0.24235351383686066 10.673625946044922 0.16342340409755707 0.7096592783927917 0.4374436140060425 -0.46334636211395264 -0.12323269993066788 2.2355282306671143 -0.9177524447441101 -0.5999208688735962 -0.35250890254974365 -0.31239381432533264 0.3774089515209198 9.488175392150879 -42.79310989379883 -59.9927864074707 28.039213180541992 -34.56441879272461 -75.94906616210938 2.524583339691162 -45.1899528503418 7.163117408752441 -0.5417598485946655 -0.15968424081802368 -0.36803364753723145 0.9012981057167053 -0.2355649322271347 0.5868299007415771 0.2734734117984772 -0.024434197694063187 -0.013459817506372929 -8.050423622131348 6.0880231857299805 -1.3895869255065918 -0.3670775890350342 -0.48628783226013184 -0.30834680795669556 -3.2072973251342773 0.9038170576095581 -0.07908843457698822 -0.16986721754074097 -0.16954627633094788 -0.3364555239677429 -11.14449691772461 0.8159557580947876 -0.2876579463481903 0.2529368996620178 -0.6685004830360413 0.41832971572875977 -1.8229129314422607 -0.11442030221223831 -0.04137382656335831 -0.9753926992416382 -0.46934932470321655 1.248753547668457 -81.34831237792969 -57.7888298034668 -63.12738800048828 -2.6200976371765137 78.39630126953125 2.4031059741973877 -0.2729106545448303 1.3785881996154785 11.71190071105957 0.7263393998146057 -0.09673291444778442 -0.14373578131198883 16.37502670288086 -0.5802613496780396 7.298469066619873 -0.8918660879135132 44.348358154296875 -1.819791555404663 13.893831253051758 -18.19711685180664 27.738771438598633
-159.0760776841715 67.93552035304802 0.6064019036467851 168.67359924316406 -28.608280181884766 -171.27862548828125 -9.897948265075684 19.310527801513672 -0.7644517421722412 9.910155296325684 -11.382465362548828 -0.41192641854286194 -9.948110580444336 17.87109375 -13.190258026123047 10.769274711608887 -22.855606079101562 -25.676807403564453 0.1769913285970688 0.11902353912591934 -0.4065726101398468 -0.1778106540441513 -0.5073074698448181 -0.08783756196498871 0.4832797646522522 -0.11061123758554459 -0.0020476123318076134 67.4651107788086 -12.131440162658691 28.68947410583496 -27.796899795532227 -29.322114944458008 69.81961059570312 -28.054153442382812 -76.8403091430664 -35.74589920043945 0.7028073072433472 0.6157274842262268 0.3790668845176697 -0.6486464142799377 0.3561883866786957 -0.48247841000556946 0.7290584444999695 -0.9293615221977234 0.21691472828388214 7.737825870513916 4.7162957191467285 1.2105612754821777 -0.07820591330528259 -0.7403037548065186 -0.42383670806884766 3.1284332275390625 0.6754715442657471 1.0382181406021118 0.8797454237937927 0.25892817974090576 -0.2084902971982956 10.669557571411133 0.18920883536338806 0.7969945669174194 0.4189205467700958 -0.4505983293056488 -0.09001913666725159 2.248823404312134 -0.933235228061676 -0.5292477607727051 -0.3460499346256256 -0.2840110659599304 0.39132702350616455 10.17051887512207 -42.44918441772461 -59.55915069580078 28.063642501831055 -34.73900604248047 -76.08583068847656 2.55544376373291 -45.19910430908203 7.211422920227051 -0.5086104869842529 -0.11418601125478745 -0.27021849155426025 0.9213983416557312 -0.23490773141384125 0.6569772958755493 0.2920292615890503 -0.04474577680230141 0.03452158346772194 -8.019538879394531 6.093733310699463 -1.3491777181625366 -0.3680419921875 -0.4922884404659271 -0.2508466839790344 -3.1942555904388428 0.884567379951477 0.006140274461358786 -0.15180128812789917 -0.1738838404417038 -0.31019327044487 -11.160531997680664 0.7807658314704895 -0.21467526257038116 0.2516249120235443 -0.6975915431976318 0.4569300413131714 -1.8401764631271362 -0.13059327006340027 0.019167648628354073 -0.9832870364189148 -0.46302247047424316 1.3020315170288086 -81.05126953125 -57.90929412841797 -62.63982009887695 -2.508429765701294 78.33472442626953 2.2999494075775146 -0.29969221353530884 1.4204354286193848 11.729020118713379 0.7839670181274414 -0.05656234920024872 -0.16158439218997955 16.236528396606445 -1.194000005722046 7.255070209503174 -0.9817572236061096 44.604736328125 -1.6583082675933838 13.732922554016113 -18.234107971191406 27.34613609313965
-162.88105825002245 67.65900697468923 0.2798022678566094 168.8231964111328 -30.705408096313477 -170.1020050048828 -8.984858512878418 19.731000900268555 -0.3670031428337097 9.474860191345215 -11.42275333404541 -0.27384084463119507 -9.58211612701416 17.416555404663086 -12.454742431640625 10.173005104064941 -22.831279754638672 -24.217390060424805 0.13123224675655365 0.06362175196409225 -0.3945840299129486 -0.30793434381484985 -0.4096088111400604 0.0809326097369194 0.3774053454399109 0.014761032536625862 0.13899460434913635 65.75865173339844 -11.26681900024414 28.53021812438965 -27.71269416809082 -29.891876220703125 70.17141723632812 -29.111652374267578 -77.08928680419922 -36.6153450012207 0.658836305141449 0.6462015509605408 0.4079107344150543 -0.6057931184768677 0.3040430247783661 -0.4378865659236908 0.7015126347541809 -1.0878735780715942 0.3622189164161682 7.801271438598633 4.72254753112793 1.1442854404449463 -0.01360449567437172 -0.7592451572418213 -0.305999755859375 3.1687896251678467 0.6490626335144043 0.9703985452651978 0.9065909385681152 0.2993210256099701 -0.25902697443962097 10.633809089660645 0.1854385882616043 1.0182640552520752 0.46577998995780945 -0.4365993142127991 -0.015531348995864391 2.2606706619262695 -0.929145336151123 -0.5307590365409851 -0.36541908979415894 -0.1819593906402588 0.38751208782196045 10.6168794631958 -42.327003479003906 -59.30101013183594 28.159950256347656 -34.82365036010742 -76.16870880126953 2.268756628036499 -44.516502380371094 7.060585021972656 -0.6444576978683472 -0.11131001263856888 -0.1851794421672821 0.8143603205680847 -0.13921530544757843 0.7714025378227234 0.2126881182193756 -0.12522856891155243 0.1656988263130188 -7.9493231773376465 6.137092590332031 -1.1898438930511475 -0.42565545439720154 -0.4596782326698303 -0.23806339502334595 -3.103921413421631 0.8340540528297424 0.20163637399673462 -0.12335386872291565 -0.24931396543979645 -0.08961892127990723 -11.161344528198242 0.7712269425392151 -0.1173245906829834 0.2550174295902252 -0.8011082410812378 0.4928513765335083 -1.829941987991333 -0.10065416246652603 0.10949476808309555 -1.1308153867721558 -0.38320672512054443 1.2437044382095337 -77.7437744140625 -58.47572708129883 -59.19414138793945 -2.3619534969329834 77.27854919433594 2.10538911819458 -0.9970005750656128 0.5689941048622131 10.469446182250977 0.7241631746292114 0.07813592255115509 -0.22342172265052795 16.586227416992188 -3.295408248901367 7.100131988525391 -0.770684003829956 45.8678092956543 -1.5147521495819092 12.911116600036621 -17.48696517944336 25.687606811523438
-166.7885642241835 67.37749389785799 -0.16147608401552174 168.7198486328125 -34.38460922241211 -168.9805450439453 -7.871301174163818 20.307018280029297 0.12177832424640656 8.93359375 -11.531503677368164 -0.07979533076286316 -9.042712211608887 16.710065841674805 -11.311895370483398 9.331576347351074 -22.956594467163086 -21.771198272705078 0.07571438699960709 -0.03268176689743996 -0.38678571581840515 -0.43023622035980225 -0.3220849633216858 0.25054848194122314 0.3339228630065918 0.2315736711025238 0.2418777346611023 62.91851043701172 -9.770276069641113 28.3214168548584 -27.570688247680664 -30.384740829467773 70.28907775878906 -29.446754455566406 -77.10750579833984 -36.554195404052734 0.6546525955200195 0.6956719160079956 0.34807607531547546 -0.559989333152771 0.24353617429733276 -0.4743627607822418 0.6246242523193359 -1.2636454105377197 0.43768343329429626 7.821190357208252 4.737722873687744 1.1334056854248047 0.14226900041103363 -0.7700573801994324 -0.16608020663261414 3.226283073425293 0.7198228240013123 0.7784388661384583 0.9445859789848328 0.3162901699542999 -0.4377363324165344 10.583203315734863 0.1402387171983719 1.277308464050293 0.5281761288642883 -0.463555246591568 -0.003787531051784754 2.3346903324127197 -0.9581857323646545 -0.5929477214813232 -0.4129190444946289 -0.10460899025201797 0.37015730142593384 11.210391998291016 -42.129520416259766 -59.322349548339844 28.289846420288086 -34.944766998291016 -76.42020416259766 1.8889470100402832 -43.16322326660156 6.6842780113220215 -0.8617210984230042 -0.14621563255786896 -0.22310324013233185 0.6165443658828735 -0.05465247482061386 0.8877678513526917 0.06193126365542412 -0.2693703770637512 0.25001004338264465 -7.833314418792725 6.181502342224121 -1.1390920877456665 -0.4784965515136719 -0.36441028118133545 -0.35224899649620056 -2.9852042198181152 0.7213734984397888 0.3498317301273346 -0.09702645987272263 -0.3148629665374756 0.14154857397079468 -11.16167163848877 0.7408716082572937 -0.12551066279411316 0.2713622450828552 -0.9387238025665283 0.4322762191295624 -1.8087338209152222 -0.11506051570177078 0.1365792453289032 -1.2917107343673706 -0.26107653975486755 1.109541416168213 -73.49443054199219 -59.1630859375 -54.989620208740234 -2.1122076511383057 75.98945617675781 1.7800923585891724 -1.8139630556106567 -0.7360644936561584 8.40246295928955 0.6450762748718262 0.25734397768974304 -0.4679291546344757 16.878379821777344 -6.409275054931641 6.728448867797852 -0.5598095059394836 47.583072662353516 -1.41628897190094 11.847970008850098 -16.298797607421875 23.335283279418945
